<?xml version="1.0" encoding="UTF-8" standalone="no" ?>
<!DOCTYPE svg PUBLIC "-//W3C//DTD SVG 1.1//EN" "http://www.w3.org/Graphics/SVG/1.1/DTD/svg11.dtd">
<svg xmlns="http://www.w3.org/2000/svg" xmlns:xlink="http://www.w3.org/1999/xlink" version="1.1" width="1280" height="1024" viewBox="0 0 1280 1024" xml:space="preserve">
<desc>Created with Fabric.js 5.3.0</desc>
<defs>
</defs>
<g transform="matrix(1 0 0 1 640 512)" id="background-logo"  >
<rect style="stroke: none; stroke-width: 0; stroke-dasharray: none; stroke-linecap: butt; stroke-dashoffset: 0; stroke-linejoin: miter; stroke-miterlimit: 4; fill: rgb(18,18,18); fill-rule: nonzero; opacity: 1;"  paint-order="stroke"  x="-640" y="-512" rx="0" ry="0" width="1280" height="1024" />
</g>
<g transform="matrix(1.9211538461538462 0 0 1.9211538461538462 640 404.9388990384615)" id="logo-logo"  >
<g style=""  paint-order="stroke"   >
		<g transform="matrix(0.7425544366913971 0 0 -0.5012712473488566 0 1.320764268011743)"  >
<g style=""  paint-order="stroke"   >
		<g transform="matrix(1 0 0 1 0 0)"  >
<polygon style="stroke: none; stroke-width: 1; stroke-dasharray: none; stroke-linecap: butt; stroke-dashoffset: 0; stroke-linejoin: miter; stroke-miterlimit: 4; fill: rgb(255,95,31); fill-rule: nonzero; opacity: 1;"  paint-order="stroke"  points="0,-62.839665 -125,62.839665 -92.3913,62.839665 0,-30.053844999999995 92.3913,62.839665 125,62.839665 0,-62.839665 " />
</g>
</g>
</g>
		<g transform="matrix(0.0738130962945515 0 0 0.6243086090258172 -66.2380589367815 -82.21093564399376)"  >
<g style=""  paint-order="stroke"   >
		<g transform="matrix(1 0 0 1 0 0)"  >
<polygon style="stroke: none; stroke-width: 1; stroke-dasharray: none; stroke-linecap: butt; stroke-dashoffset: 0; stroke-linejoin: miter; stroke-miterlimit: 4; fill: rgb(255,95,31); fill-rule: nonzero; opacity: 1;"  paint-order="stroke"  points="100,-50 -100,-50 -100,50 100,50 100,-50 100,-50 " />
</g>
</g>
</g>
		<g transform="matrix(0.0738130962945515 0 0 0.6243086090258172 66.23805893678156 -82.21093564399376)"  >
<g style=""  paint-order="stroke"   >
		<g transform="matrix(1 0 0 1 0 0)"  >
<polygon style="stroke: none; stroke-width: 1; stroke-dasharray: none; stroke-linecap: butt; stroke-dashoffset: 0; stroke-linejoin: miter; stroke-miterlimit: 4; fill: rgb(255,95,31); fill-rule: nonzero; opacity: 1;"  paint-order="stroke"  points="100,-50 -100,-50 -100,50 100,50 100,-50 100,-50 " />
</g>
</g>
</g>
		<g transform="matrix(0 0.07417528028029478 -1.4648595737804484 0 0 -106.62696540292427)"  >
<g style=""  paint-order="stroke"   >
		<g transform="matrix(1 0 0 1 0 0)"  >
<polygon style="stroke: none; stroke-width: 1; stroke-dasharray: none; stroke-linecap: butt; stroke-dashoffset: 0; stroke-linejoin: miter; stroke-miterlimit: 4; fill: rgb(255,95,31); fill-rule: nonzero; opacity: 1;"  paint-order="stroke"  points="100,-50 -100,-50 -100,50 100,50 100,-50 100,-50 " />
</g>
</g>
</g>
		<g transform="matrix(0.22820846294356278 0 0 0.22820846294356278 0 -63.0036410070318)"  >
<g style=""  paint-order="stroke"   >
		<g transform="matrix(1 0 0 1 0 0)"  >
<polygon style="stroke: none; stroke-width: 1; stroke-dasharray: none; stroke-linecap: butt; stroke-dashoffset: 0; stroke-linejoin: miter; stroke-miterlimit: 4; fill: rgb(255,95,31); fill-rule: nonzero; opacity: 1;"  paint-order="stroke"  points="100,-22.430000000000007 30.900000000000006,-32.46 0,-95 -30.900000000000006,-32.46 -100,-22.430000000000007 -50,26.260000000000005 -61.8,95 0,62.55000000000001 61.80000000000001,95 50,26.260000000000005 100,-22.430000000000007 " />
</g>
</g>
</g>
		<g transform="matrix(0.13122661734014038 0 0 0.13122661734014038 -38.231616008475044 -80.00486424691758)"  >
<g style=""  paint-order="stroke"   >
		<g transform="matrix(1 0 0 1 0 0)"  >
<polygon style="stroke: none; stroke-width: 1; stroke-dasharray: none; stroke-linecap: butt; stroke-dashoffset: 0; stroke-linejoin: miter; stroke-miterlimit: 4; fill: rgb(255,95,31); fill-rule: nonzero; opacity: 1;"  paint-order="stroke"  points="100,-22.430000000000007 30.900000000000006,-32.46 0,-95 -30.900000000000006,-32.46 -100,-22.430000000000007 -50,26.260000000000005 -61.8,95 0,62.55000000000001 61.80000000000001,95 50,26.260000000000005 100,-22.430000000000007 " />
</g>
</g>
</g>
		<g transform="matrix(0.13122661734014038 0 0 0.13122661734014038 38.2316160084751 -80.00486424691758)"  >
<g style=""  paint-order="stroke"   >
		<g transform="matrix(1 0 0 1 0 0)"  >
<polygon style="stroke: none; stroke-width: 1; stroke-dasharray: none; stroke-linecap: butt; stroke-dashoffset: 0; stroke-linejoin: miter; stroke-miterlimit: 4; fill: rgb(255,95,31); fill-rule: nonzero; opacity: 1;"  paint-order="stroke"  points="100,-22.430000000000007 30.900000000000006,-32.46 0,-95 -30.900000000000006,-32.46 -100,-22.430000000000007 -50,26.260000000000005 -61.8,95 0,62.55000000000001 61.80000000000001,95 50,26.260000000000005 100,-22.430000000000007 " />
</g>
</g>
</g>
		<g transform="matrix(0.0738130962945515 0 0 0.6243086090258172 0 82.82906297966292)"  >
<g style=""  paint-order="stroke"   >
		<g transform="matrix(1 0 0 1 0 0)"  >
<polygon style="stroke: none; stroke-width: 1; stroke-dasharray: none; stroke-linecap: butt; stroke-dashoffset: 0; stroke-linejoin: miter; stroke-miterlimit: 4; fill: rgb(255,95,31); fill-rule: nonzero; opacity: 1;"  paint-order="stroke"  points="100,-50 -100,-50 -100,50 100,50 100,-50 100,-50 " />
</g>
</g>
</g>
		<g transform="matrix(0.0738130962945515 0 0 0.6243086090258172 -35.21514893385296 64.46234218620208)"  >
<g style=""  paint-order="stroke"   >
		<g transform="matrix(1 0 0 1 0 0)"  >
<polygon style="stroke: none; stroke-width: 1; stroke-dasharray: none; stroke-linecap: butt; stroke-dashoffset: 0; stroke-linejoin: miter; stroke-miterlimit: 4; fill: rgb(255,95,31); fill-rule: nonzero; opacity: 1;"  paint-order="stroke"  points="100,-50 -100,-50 -100,50 100,50 100,-50 100,-50 " />
</g>
</g>
</g>
		<g transform="matrix(0.0738130962945515 0 0 0.6243086090258172 -66.2380589367815 45.77637871300658)"  >
<g style=""  paint-order="stroke"   >
		<g transform="matrix(1 0 0 1 0 0)"  >
<polygon style="stroke: none; stroke-width: 1; stroke-dasharray: none; stroke-linecap: butt; stroke-dashoffset: 0; stroke-linejoin: miter; stroke-miterlimit: 4; fill: rgb(255,95,31); fill-rule: nonzero; opacity: 1;"  paint-order="stroke"  points="100,-50 -100,-50 -100,50 100,50 100,-50 100,-50 " />
</g>
</g>
</g>
		<g transform="matrix(0.0738130962945515 0 0 0.6243086090258172 35.21514893385296 64.17805537995861)"  >
<g style=""  paint-order="stroke"   >
		<g transform="matrix(1 0 0 1 0 0)"  >
<polygon style="stroke: none; stroke-width: 1; stroke-dasharray: none; stroke-linecap: butt; stroke-dashoffset: 0; stroke-linejoin: miter; stroke-miterlimit: 4; fill: rgb(255,95,31); fill-rule: nonzero; opacity: 1;"  paint-order="stroke"  points="100,-50 -100,-50 -100,50 100,50 100,-50 100,-50 " />
</g>
</g>
</g>
		<g transform="matrix(0.0738130962945515 0 0 0.6243086090258172 66.23805893678156 45.77637871300658)"  >
<g style=""  paint-order="stroke"   >
		<g transform="matrix(1 0 0 1 0 0)"  >
<polygon style="stroke: none; stroke-width: 1; stroke-dasharray: none; stroke-linecap: butt; stroke-dashoffset: 0; stroke-linejoin: miter; stroke-miterlimit: 4; fill: rgb(255,95,31); fill-rule: nonzero; opacity: 1;"  paint-order="stroke"  points="100,-50 -100,-50 -100,50 100,50 100,-50 100,-50 " />
</g>
</g>
</g>
		<g transform="matrix(0.7425544366913971 0 0 -0.5012712473488566 0 -30.178952989522543)"  >
<g style=""  paint-order="stroke"   >
		<g transform="matrix(1 0 0 1 0 0)"  >
<polygon style="stroke: none; stroke-width: 1; stroke-dasharray: none; stroke-linecap: butt; stroke-dashoffset: 0; stroke-linejoin: miter; stroke-miterlimit: 4; fill: rgb(255,95,31); fill-rule: nonzero; opacity: 1;"  paint-order="stroke"  points="0,-62.839665 -125,62.839665 -92.3913,62.839665 0,-30.053844999999995 92.3913,62.839665 125,62.839665 0,-62.839665 " />
</g>
</g>
</g>
		<g transform="matrix(0.7425544366913971 0 0 -0.5012712473488566 0 32.82048152554606)"  >
<g style=""  paint-order="stroke"   >
		<g transform="matrix(1 0 0 1 0 0)"  >
<polygon style="stroke: none; stroke-width: 1; stroke-dasharray: none; stroke-linecap: butt; stroke-dashoffset: 0; stroke-linejoin: miter; stroke-miterlimit: 4; fill: rgb(255,95,31); fill-rule: nonzero; opacity: 1;"  paint-order="stroke"  points="0,-62.839665 -125,62.839665 -92.3913,62.839665 0,-30.053844999999995 92.3913,62.839665 125,62.839665 0,-62.839665 " />
</g>
</g>
</g>
</g>
</g>
<g transform="matrix(1.9211538461538462 0 0 1.9211538461538462 639.9519711538462 718.5701335336977)" id="text-logo"  >
<g style=""  paint-order="stroke"   >
		<g transform="matrix(1 0 0 1 0 0)" id="text-logo-path-0"  >
<path style="stroke: none; stroke-width: 0; stroke-dasharray: none; stroke-linecap: butt; stroke-dashoffset: 0; stroke-linejoin: miter; stroke-miterlimit: 4; fill: rgb(255,255,255); fill-rule: nonzero; opacity: 1;"  paint-order="stroke"  transform=" translate(-217.45, 17.5)" d="M 29.5 0 L 38 0 L 24.75 -35 L 15.75 -35 L 2.5 0 L 11 0 L 13.45 -6.5 L 27.05 -6.5 L 29.5 0 Z M 16.1 -13.5 L 20.25 -24.45 L 24.4 -13.5 L 16.1 -13.5 Z M 44.95 0 L 53.45 0 L 53.45 -11.5 L 59.8 -11.5 L 66.45 0 L 75.45 0 L 68.35 -12.3 C 72.65 -13.8 74.8 -17.5 74.8 -23.35 C 74.8 -31.1 70.9 -35 63.1 -35 L 44.95 -35 L 44.95 0 Z M 53.45 -18.5 L 53.45 -28 L 63.05 -28 C 65.1 -28 66.3 -26.45 66.3 -23.3 C 66.3 -20.1 65.2 -18.5 63.05 -18.5 L 53.45 -18.5 Z M 96.2 -7 L 90.9 -7 L 90.9 -28 L 96.2 -28 C 101.2 -28 104.15 -26.75 105.6 -23.75 C 106.3 -22.2 106.65 -20.15 106.65 -17.55 C 106.65 -12.5 105.35 -9.5 102.4 -8.1 C 100.85 -7.35 98.8 -7 96.2 -7 Z M 82.4 0 L 97.7 0 C 105.95 0 110.9 -2.2 113.35 -7.3 C 114.55 -9.85 115.15 -13.25 115.15 -17.55 C 115.15 -25.9 113 -30.8 107.95 -33.2 C 105.4 -34.4 102 -35 97.7 -35 L 82.4 -35 L 82.4 0 Z M 122.1 0 L 150.6 0 L 150.6 -7 L 130.6 -7 L 130.6 -14 L 145.6 -14 L 145.6 -21 L 130.6 -21 L 130.6 -28 L 150.6 -28 L 150.6 -35 L 122.1 -35 L 122.1 0 Z M 180.55 0 L 191.05 0 L 191.05 -35 L 182.55 -35 L 182.55 -10.85 L 168.05 -35 L 157.55 -35 L 157.55 0 L 166.05 0 L 166.05 -24.15 L 180.55 0 Z M 209 0 L 217.5 0 L 217.5 -28 L 228.5 -28 L 228.5 -35 L 198 -35 L 198 -28 L 209 -28 L 209 0 Z M 247.4 0 L 255.9 0 L 255.9 -13 L 270.9 -13 L 270.9 -20 L 255.9 -20 L 255.9 -28 L 275.9 -28 L 275.9 -35 L 247.4 -35 L 247.4 0 Z M 299.4 0.5 C 311.35 0.5 317.35 -5.3 317.35 -17.55 C 317.35 -29.55 311.75 -35.5 299.4 -35.5 C 287.35 -35.5 281.35 -29.9 281.35 -17.55 C 281.35 -5.5 287 0.5 299.4 0.5 Z M 289.85 -17.55 C 289.85 -24.9 292.85 -28.5 299.4 -28.5 C 305.65 -28.5 308.85 -25 308.85 -17.55 C 308.85 -10.15 305.95 -6.5 299.4 -6.5 C 293 -6.5 289.85 -9.95 289.85 -17.55 Z M 324.3 0 L 332.8 0 L 332.8 -11.5 L 339.15 -11.5 L 345.8 0 L 354.8 0 L 347.7 -12.3 C 352 -13.8 354.15 -17.5 354.15 -23.35 C 354.15 -31.1 350.25 -35 342.45 -35 L 324.3 -35 L 324.3 0 Z M 332.8 -18.5 L 332.8 -28 L 342.4 -28 C 344.45 -28 345.65 -26.45 345.65 -23.3 C 345.65 -20.1 344.55 -18.5 342.4 -18.5 L 332.8 -18.5 Z M 379.8 0.5 C 390.95 0.5 396.65 -3.45 396.9 -11.45 L 396.9 -18.45 L 380.85 -18.45 L 380.85 -11.45 L 388.35 -11.45 C 388 -8.15 384.2 -6.5 379.8 -6.5 C 373.35 -6.5 370.25 -9.8 370.25 -17.55 C 370.25 -25 373.15 -28.5 379.8 -28.5 C 384.65 -28.5 388.45 -27 388.45 -23 L 396.95 -23 C 396.35 -31.35 389.8 -35.5 379.8 -35.5 C 367.6 -35.5 361.75 -30 361.75 -17.55 C 361.75 -5.35 367.25 0.5 379.8 0.5 Z M 403.9 0 L 432.4 0 L 432.4 -7 L 412.4 -7 L 412.4 -14 L 427.4 -14 L 427.4 -21 L 412.4 -21 L 412.4 -28 L 432.4 -28 L 432.4 -35 L 403.9 -35 L 403.9 0 Z" stroke-linecap="round" />
</g>
</g>
</g>
</svg>